<?xml version="1.0" encoding="utf-8"?>
<!-- Generator: Adobe Illustrator 27.0.0, SVG Export Plug-In . SVG Version: 6.00 Build 0)  -->
<svg version="1.1" id="Layer_1" xmlns="http://www.w3.org/2000/svg" xmlns:xlink="http://www.w3.org/1999/xlink" x="0px" y="0px"
	 viewBox="0 0 700 347.4" style="enable-background:new 0 0 700 347.4;" xml:space="preserve">
<style type="text/css">
	.st0{fill:#0062A3;}
</style>
<g>
	<g>
		<g>
			<path class="st0" d="M477.3,102.2c2.8,3.6,4.3,7.6,4.3,12.1c0,3.9-1,7.3-3,10.4c-2,3.1-4.9,5.5-8.7,7.3
				c-3.8,1.8-8.2,2.7-13.2,2.7h-30.3V58.9h28.9c5.2,0,9.6,0.9,13.3,2.6c3.7,1.7,6.5,4.1,8.4,7c1.9,2.9,2.8,6.2,2.8,9.9
				c0,4.4-1.2,8-3.5,10.9c-2.3,2.9-5.5,5.1-9.4,6.4C471.1,96.5,474.5,98.7,477.3,102.2z M438.8,90.8h15.4c4.1,0,7.3-0.9,9.5-2.8
				c2.3-1.9,3.4-4.5,3.4-8c0-3.4-1.1-6.1-3.4-8c-2.3-1.9-5.5-2.9-9.5-2.9h-15.4V90.8z M465.6,121.5c2.4-2,3.6-4.9,3.6-8.5
				c0-3.7-1.3-6.7-3.8-8.8c-2.5-2.2-5.9-3.3-10.1-3.3h-16.4v23.7h16.8C459.8,124.6,463.2,123.6,465.6,121.5z"/>
		</g>
		<g>
			<path class="st0" d="M494.8,88.4c2.5-4.7,5.9-8.3,10.3-10.9c4.3-2.6,9.1-3.9,14.4-3.9c4.7,0,8.9,0.9,12.4,2.8
				c3.5,1.9,6.3,4.2,8.5,6.9v-8.7h12.6v60.1h-12.6v-8.9c-2.1,2.8-5,5.2-8.6,7.1c-3.6,1.9-7.8,2.8-12.4,2.8c-5.2,0-9.9-1.3-14.2-4
				c-4.3-2.7-7.7-6.4-10.2-11.1c-2.5-4.8-3.8-10.2-3.8-16.2C491,98.4,492.2,93,494.8,88.4z M537.6,93.8c-1.7-3.1-3.9-5.4-6.7-7
				c-2.8-1.6-5.7-2.4-8.9-2.4c-3.2,0-6.2,0.8-8.9,2.3c-2.8,1.6-5,3.9-6.7,6.9c-1.7,3-2.6,6.6-2.6,10.7c0,4.1,0.9,7.8,2.6,10.9
				c1.7,3.1,4,5.5,6.8,7.1c2.8,1.6,5.8,2.5,8.9,2.5c3.2,0,6.2-0.8,8.9-2.4c2.8-1.6,5-3.9,6.7-7c1.7-3.1,2.6-6.7,2.6-10.9
				C540.2,100.5,539.4,96.9,537.6,93.8z"/>
		</g>
		<g>
			<path class="st0" d="M568.7,88.4c2.5-4.7,5.9-8.3,10.3-10.9c4.3-2.6,9.1-3.9,14.5-3.9c3.9,0,7.8,0.9,11.6,2.6
				c3.8,1.7,6.9,4,9.1,6.8V54h12.6v80.8h-12.6v-9.1c-2,2.9-4.9,5.3-8.5,7.2c-3.6,1.9-7.7,2.8-12.4,2.8c-5.2,0-10-1.3-14.4-4
				c-4.3-2.7-7.7-6.4-10.3-11.1c-2.5-4.8-3.8-10.2-3.8-16.2C565,98.4,566.2,93,568.7,88.4z M611.6,93.8c-1.7-3.1-3.9-5.4-6.7-7
				c-2.8-1.6-5.7-2.4-8.9-2.4c-3.2,0-6.2,0.8-8.9,2.3c-2.8,1.6-5,3.9-6.7,6.9c-1.7,3-2.6,6.6-2.6,10.7c0,4.1,0.9,7.8,2.6,10.9
				c1.7,3.1,4,5.5,6.8,7.1c2.8,1.6,5.8,2.5,8.9,2.5c3.2,0,6.2-0.8,8.9-2.4c2.8-1.6,5-3.9,6.7-7c1.7-3.1,2.6-6.7,2.6-10.9
				C614.2,100.5,613.3,96.9,611.6,93.8z"/>
		</g>
		<g>
			<path class="st0" d="M643.8,64.3c-1.5-1.5-2.3-3.4-2.3-5.7c0-2.3,0.8-4.1,2.3-5.7c1.5-1.5,3.4-2.3,5.7-2.3c2.2,0,4,0.8,5.6,2.3
				c1.5,1.5,2.3,3.4,2.3,5.7c0,2.3-0.8,4.1-2.3,5.7c-1.5,1.5-3.4,2.3-5.6,2.3C647.2,66.6,645.3,65.9,643.8,64.3z M655.6,74.6v60.1
				h-12.4V74.6H655.6z"/>
		</g>
		<g>
			<path class="st0" d="M696.8,54v68.3c0,6.9-5.6,12.4-12.4,12.4l0,0c-6.9,0-12.4-5.6-12.4-12.4V54H696.8z"/>
		</g>
	</g>
	<g>
		<g>
			<g>
				<path class="st0" d="M488.5,191.7v80.1c0,5.2-1.3,9.6-4,13.3c-2.7,3.7-6.3,6.6-10.8,8.6c-4.5,2-9.6,3-15.2,3
					c-5.9,0-11.2-1.1-16-3.2c-4.8-2.1-8.5-5.2-11.2-9.1c-2.7-3.9-4.1-8.3-4.1-13.3c0-1.5,0.1-3.5,0.4-6c0.3-2.5,0.6-5.2,1-8.3
					c0.4-3.1,0.8-6.1,1.3-9.3c0.5-3.1,0.9-6.1,1.4-9.1l10.1,1.5c-0.8,5-1.5,9.6-2.1,13.8c-0.6,4.2-1.1,7.7-1.4,10.7
					c-0.3,2.9-0.5,5.1-0.5,6.6c0,3.2,0.9,6,2.6,8.5c1.7,2.5,4.2,4.4,7.4,5.8c3.2,1.4,6.9,2.1,11.1,2.1c4.2,0,7.8-0.7,10.7-2
					c2.9-1.3,5.2-3.2,6.7-5.5c1.5-2.3,2.3-5.1,2.3-8.3v-80.1v-11h20.8v11.2L488.5,191.7z M488.5,269.6v-9.1h11.7v9.1H488.5z
					 M500.2,269.6v-9.1c0.4,0,0.8,0.1,1.1,0.3c0.3,0.2,0.5,0.5,0.7,0.9c0.1,0.4,0.3,0.8,0.3,1.4c0.1,0.5,0.1,1.2,0.1,1.9
					c0,0.7,0,1.3-0.1,1.9c-0.1,0.6-0.2,1.1-0.3,1.5c-0.1,0.4-0.4,0.7-0.7,0.9C501,269.5,500.6,269.6,500.2,269.6z"/>
			</g>
			<g>
				<path class="st0" d="M500.2,269.6c-0.4,0-0.8-0.1-1.1-0.3c-0.3-0.2-0.5-0.5-0.7-0.9c-0.1-0.4-0.3-0.9-0.3-1.5
					c-0.1-0.6-0.1-1.2-0.1-1.9c0-0.9,0.1-1.7,0.2-2.4s0.3-1.2,0.7-1.5c0.3-0.4,0.8-0.5,1.4-0.5V269.6z M500.2,269.6v-9.1h18.6
					l-5.2,4.1v-49.8h10.1v54.7H500.2z M504.5,290.2v-10.6h10v10.6H504.5z M520.7,290.2v-10.6h10v10.6H520.7z"/>
			</g>
			<g>
				<path class="st0" d="M536.7,269.6v-9.1H577l-7.7,6.9V245c0-5.3-0.6-9.5-1.8-12.5c-1.2-3.1-3.1-5.2-5.8-6.5
					c-2.7-1.3-6.3-1.9-10.9-1.9h-8.8v-9.2h8.8c6,0,11.2,1,15.5,2.9c4.3,1.9,7.6,5.1,9.8,9.5c2.3,4.4,3.4,10.3,3.4,17.7v24.6H536.7z
					 M579.4,269.6v-9.1h11.8v9.1H579.4z M591.2,269.6v-9.1c0.4,0,0.7,0.1,1,0.3c0.3,0.2,0.5,0.5,0.7,0.9c0.1,0.4,0.3,0.8,0.4,1.4
					c0.1,0.5,0.2,1.2,0.2,1.9c0,0.7-0.1,1.3-0.2,1.9c-0.1,0.6-0.2,1.1-0.4,1.5c-0.1,0.4-0.4,0.7-0.7,0.9
					C591.9,269.5,591.6,269.6,591.2,269.6z"/>
			</g>
			<g>
				<path class="st0" d="M591.2,269.6c-0.4,0-0.8-0.1-1.1-0.3c-0.3-0.2-0.5-0.5-0.7-0.9c-0.1-0.4-0.3-0.9-0.3-1.5
					c-0.1-0.6-0.1-1.2-0.1-1.9c0-0.9,0.1-1.7,0.2-2.4c0.1-0.7,0.3-1.2,0.7-1.5c0.3-0.4,0.8-0.5,1.4-0.5V269.6z M591.2,269.6v-9.1
					H695l-5.2,4.1v-49.8H700v54.7H591.2z M689.7,290.2v-10.6H700v10.6H689.7z"/>
			</g>
		</g>
		<g>
			<rect x="456.4" y="197.3" class="st0" width="27.8" height="8.3"/>
		</g>
		<g>
			<rect x="456.4" y="221.6" class="st0" width="27.8" height="8.3"/>
		</g>
		<g>
			<rect x="456.4" y="245.9" class="st0" width="27.8" height="8.3"/>
		</g>
	</g>
	<g>
		<path class="st0" d="M699.1,41.7h-29.5c-0.5,0-0.9,0.4-0.9,0.9v10.6c0,0.5,0.4,0.9,0.9,0.9h29.5c0.5,0,0.9-0.4,0.9-0.9V42.5
			C700,42.1,699.6,41.7,699.1,41.7z"/>
	</g>
	<g>
		<g>
			<path class="st0" d="M282.6,230.8c-29.6,20.9-65.7,31.7-104.5,31.7c-8.9,0-17.9-0.6-27-1.7l-6.5,20.2l-64.7-58.1l88.5-15.9
				l-5.8,18c37.2,3.2,71.7-5.1,98.8-24.2c6.4-4.5,21.9-19.1,37.4-36.6c49.4-63.6,15.7-157-82.7-164.2H0v94.8
				c7.9-6.1,16.3-11.6,25.3-16.2C64.8,58.2,112,54.2,159.6,67l9.2-19.1l56.1,66.4l-89.9,3.5l8.3-17.1c-6.1-1.4-13.8-1.5-22.4-0.6
				C51.9,107.3,0,166.5,0,235.9l0,111.5h212.3c90.7-8.1,131.1-91,99.5-143.1C303.1,214.2,293.4,223.1,282.6,230.8z"/>
		</g>
	</g>
</g>
</svg>
